PathFileType	4	(X/Y/Z)	/Users/itak/Documents/Research/Walk-IL/dataset/trc/00404_00012.trc
DataRate	CameraRate	NumFrames	NumMarkers	Units	OrigDataRate	OrigDataStartFrame	OrigNumFrames
100.000000	100.000000	4	54	mm	100.000000	495	566
Frame#	Time	RPSI			LPSI			L3			STRN			T10			C7			CLAV			RBAK			LBAK			LSHO			LUPA			LAEL			LAOL			LWTS			LWPS			LFRA			LHPS			RSHO			RUPA			RAEL			RAOL			RWTS			RWPS			RFRA			RIFD			RHPS			RBHD			LFHD			RFHD			LBHD			LHIP			RHIP			RASI			LASI			LKNE			LTHI			LANK			LTIP			LTOE			LMT1			LMT5			LHEE			RKNE			RTHI			RANK			RTIP			RTOE			RMT1			RMT5			RHEE			LIFD			LHTS			RHTS			*53			
		X1	Y1	Z1	X2	Y2	Z2	X3	Y3	Z3	X4	Y4	Z4	X5	Y5	Z5	X6	Y6	Z6	X7	Y7	Z7	X8	Y8	Z8	X9	Y9	Z9	X10	Y10	Z10	X11	Y11	Z11	X12	Y12	Z12	X13	Y13	Z13	X14	Y14	Z14	X15	Y15	Z15	X16	Y16	Z16	X17	Y17	Z17	X18	Y18	Z18	X19	Y19	Z19	X20	Y20	Z20	X21	Y21	Z21	X22	Y22	Z22	X23	Y23	Z23	X24	Y24	Z24	X25	Y25	Z25	X26	Y26	Z26	X27	Y27	Z27	X28	Y28	Z28	X29	Y29	Z29	X30	Y30	Z30	X31	Y31	Z31	X32	Y32	Z32	X33	Y33	Z33	X34	Y34	Z34	X35	Y35	Z35	X36	Y36	Z36	X37	Y37	Z37	X38	Y38	Z38	X39	Y39	Z39	X40	Y40	Z40	X41	Y41	Z41	X42	Y42	Z42	X43	Y43	Z43	X44	Y44	Z44	X45	Y45	Z45	X46	Y46	Z46	X47	Y47	Z47	X48	Y48	Z48	X49	Y49	Z49	X50	Y50	Z50	X51	Y51	Z51	X52	Y52	Z52	X53	Y53	Z53	X54	Y54	Z54	

496	4.95	1088.942993164062	953.4432373046875	-178.9194488525391	1220.486450195312	945.16015625	-197.1402740478516	1150.767211914062	1027.33642578125	-192.1073913574219	1175.892944335938	1194.496337890625	31.7039680480957	1156.128173828125	1130.718627929688	-212.5011749267578	1170.007568359375	1380.645629882812	-182.2365875244141	1173.23486328125	1311.096557617188	-27.44429206848145	1099.849609375	1234.468139648438	-219.8173217773438	1269.021850585938	1344.250122070312	-205.7873840332031	1327.813110351562	1362.621704101562	-126.2180480957031	1386.810913085938	1246.932861328125	-169.8641662597656	1411.946411132812	1051.592529296875	-181.1473846435547	1335.976196289062	1031.973754882812	-216.9198150634766	1395.872680664062	829.0110473632812	-100.3228302001953	1444.376342773438	823.8349609375	-165.0519256591797	1426.602661132812	946.8992309570312	-177.8287963867188	1443.155151367188	738.8797607421875	-157.3631286621094	1016.429443359375	1364.253173828125	-122.6869277954102	955.8355712890625	1300.106689453125	-134.5250091552734	902.4046630859375	1041.012939453125	-102.8439636230469	991.44091796875	1021.939331054688	-130.8395690917969	978.5891723632812	918.5628051757812	101.7224044799805	907.8385009765625	896.2797241210938	92.15235137939453	894.9916381835938	994.3825073242188	-50.59439086914062	974.7603759765625	769.489013671875	194.5431976318359	911.0052490234375	822.75	141.4557037353516	1100.550903320312	1576.684326171875	-133.1901702880859	1246.41796875	1566.223510742188	3.836949348449707	1124.305908203125	1578.357543945312	-1.429090023040771	1261.44775390625	1559.197631835938	-143.9739379882812	1345.308837890625	947.9061889648438	-115.0342025756836	982.7396240234375	932.3699951171875	-84.18659973144531	1052.44287109375	947.1931762695312	41.4817008972168	1312.805786132812	952.30078125	-2.240991115570068	1346.432250976562	474.4782409667969	54.8622932434082	1353.787475585938	607.2567749023438	4.022373199462891	1333.57080078125	26.33620071411133	48.59852981567383	1351.448852539062	237.8317413330078	58.19955444335938	1254.579223632812	38.94381332397461	256.5544128417969	1229.47900390625	36.58676528930664	176.0534210205078	1336.191772460938	28.01874160766602	175.5558929443359	1279.765747070312	23.04536628723145	9.09822940826416	1059.90625	444.9075622558594	-51.05890655517578	1018.843566894531	700.3402709960938	-4.09498405456543	1033.574096679688	101.9200820922852	-315.9757690429688	1064.920288085938	326.2763671875	-105.5667419433594	1163.37060546875	27.74221229553223	-222.3766021728516	1155.218872070312	49.68836212158203	-278.8930969238281	1060.147216796875	47.57369995117188	-254.2257537841797	1056.783935546875	139.1414794921875	-394.6165771484375	1429.106689453125	667.8507690429688	-65.55237579345703	1429.924682617188	745.5702514648438	-95.52487945556641	969.0548706054688	840.3733520507812	177.0214996337891	nan	nan	nan	
497	4.96	1093.06494140625	954.3965454101562	-172.7252807617188	1224.7314453125	946.4494018554688	-190.0015258789062	1154.934936523438	1028.1259765625	-185.2999114990234	1178.23291015625	1195.624633789062	38.28973770141602	1160.479248046875	1131.409301757812	-205.7983703613281	1173.817260742188	1381.406860351562	-176.2798004150391	1175.84716796875	1312.316162109375	-21.02857971191406	1104.064819335938	1235.1845703125	-214.0927276611328	1273.048583984375	1345.02392578125	-198.9203796386719	1331.021362304688	1363.789672851562	-118.8962249755859	1390.885864257812	1248.040161132812	-161.2023162841797	1417.453002929688	1052.69140625	-170.0233612060547	1341.880737304688	1032.233032226562	-206.2666473388672	1403.98046875	833.8717041015625	-81.70093536376953	1451.647827148438	825.7463989257812	-148.6199340820312	1432.870849609375	948.2965087890625	-164.5148773193359	1451.069702148438	740.8309326171875	-138.2569885253906	1019.830627441406	1365.252685546875	-117.9647674560547	959.3622436523438	1301.250122070312	-130.2366027832031	905.9323120117188	1042.216186523438	-100.0868225097656	995.1455688476562	1023.484252929688	-127.4495468139648	979.4529418945312	913.2456665039062	102.0899429321289	908.8099365234375	891.3383178710938	90.94670867919922	897.8128662109375	994.1702880859375	-48.81634902954102	974.3531494140625	760.930419921875	189.5682830810547	911.2630615234375	816.0409545898438	137.7082366943359	1103.897583007812	1577.571411132812	-127.8514938354492	1248.475952148438	1567.286865234375	10.32937622070312	1126.605224609375	1579.380493164062	4.114475727081299	1264.84423828125	1560.174926757812	-137.3706817626953	1348.380737304688	948.641845703125	-108.2886734008789	986.2554321289062	933.2354736328125	-78.71360778808594	1055.132690429688	948.2979125976562	47.34136581420898	1315.769287109375	953.40283203125	5.453421115875244	1348.606811523438	474.1984558105469	58.63328552246094	1356.459106445312	607.5291137695312	9.010638236999512	1333.52294921875	26.54136276245117	48.76155090332031	1352.43896484375	237.5739440917969	60.28140258789062	1254.14013671875	37.80705642700195	257.09716796875	1229.25439453125	36.13310623168945	176.3211669921875	1336.130981445312	27.9133186340332	175.7885284423828	1279.726196289062	23.2238712310791	9.319513320922852	1060.584594726562	445.920654296875	-42.15665054321289	1020.93896484375	701.47607421875	2.242873191833496	1036.297729492188	106.4726867675781	-312.9696350097656	1065.07177734375	328.3023376464844	-98.25269317626953	1163.185302734375	27.65664291381836	-221.5166015625	1156.279418945312	51.69353485107422	-276.3119506835938	1060.671875	49.05497741699219	-253.232666015625	1061.803588867188	146.1441345214844	-389.6177062988281	1436.71875	670.1416015625	-45.99015045166016	1437.4560546875	747.7589111328125	-76.42967224121094	968.8426513671875	832.3969116210938	174.4771423339844	nan	nan	nan	
498	4.97	1097.27734375	955.091064453125	-166.7579193115234	1229.08056640625	947.5191650390625	-183.0208740234375	1159.20068359375	1028.796875	-178.6862945556641	1180.442749023438	1196.531616210938	44.82219314575195	1164.896850585938	1131.997192382812	-199.2019653320312	1177.541015625	1382.057495117188	-170.3321228027344	1178.380981445312	1313.294555664062	-14.61770248413086	1108.2646484375	1235.76904296875	-208.4446563720703	1277.018676757812	1345.70263671875	-192.0383911132812	1334.1435546875	1364.828369140625	-111.5406265258789	1394.874145507812	1249.05322265625	-152.5446472167969	1422.779663085938	1053.677124023438	-158.9320831298828	1347.603881835938	1032.421997070312	-195.6477203369141	1411.664184570312	838.4630737304688	-63.67945861816406	1458.69677734375	827.7606201171875	-132.1061553955078	1438.935180664062	949.6694946289062	-151.2100524902344	1458.8046875	742.9447021484375	-118.9417266845703	1023.138122558594	1366.0400390625	-113.2662811279297	962.831787109375	1302.128662109375	-126.0114288330078	909.4013671875	1043.136108398438	-97.41537475585938	998.7940063476562	1024.73681640625	-124.1271820068359	980.1519165039062	907.9180297851562	102.2437744140625	909.6658935546875	886.34912109375	89.46229553222656	900.5046997070312	993.7344970703125	-47.17316055297852	973.9532470703125	752.6079711914062	184.3541412353516	911.5081176757812	809.4254150390625	133.6688690185547	1107.135986328125	1578.325805664062	-122.5708618164062	1250.424438476562	1568.203979492188	16.74419403076172	1128.791625976562	1580.2822265625	9.584781646728516	1268.1435546875	1561.001708984375	-130.8292694091797	1351.317504882812	949.0714721679688	-101.7047882080078	989.8106079101562	933.8500366210938	-73.53811645507812	1057.670532226562	949.2006225585938	53.01603317260742	1318.5908203125	954.2603149414062	13.10391521453857	1350.70556640625	473.7851867675781	62.20949172973633	1359.066040039062	607.6358032226562	13.74968528747559	1333.394897460938	26.81525039672852	48.94081497192383	1353.270751953125	237.2527923583984	62.25844955444336	1253.693969726562	36.78382110595703	257.6665344238281	1228.998046875	35.67977142333984	176.5918273925781	1336.020751953125	27.87986946105957	175.9799499511719	1279.605834960938	23.39940071105957	9.532029151916504	1061.294799804688	446.7743530273438	-33.07295608520508	1022.886901855469	702.450439453125	8.574607849121094	1039.08740234375	111.1778411865234	-309.6062927246094	1065.380859375	330.1916198730469	-90.69682312011719	1163.03662109375	27.47330093383789	-220.5960083007812	1157.45068359375	53.8738899230957	-273.5304565429688	1061.284301757812	50.83807754516602	-252.0811920166016	1066.8447265625	153.0997161865234	-384.2074584960938	1444.16064453125	672.6226196289062	-26.22326469421387	1444.8173828125	750.1378173828125	-57.12984466552734	968.5453491210938	824.5520629882812	171.6711273193359	nan	nan	nan	
499	4.98	1101.538818359375	955.52392578125	-161.0216674804688	1233.486938476562	948.3870849609375	-176.2171630859375	1163.530639648438	1029.38818359375	-172.2864990234375	1182.443359375	1197.229125976562	51.20013046264648	1169.346435546875	1132.50244140625	-192.737548828125	1181.177490234375	1382.61865234375	-164.4058227539062	1180.822143554688	1314.023681640625	-8.249755859375	1112.438232421875	1236.236694335938	-202.8810882568359	1280.929443359375	1346.305053710938	-185.1606292724609	1337.17626953125	1365.738403320312	-104.1622772216797	1398.7646484375	1249.9462890625	-143.8703308105469	1427.926635742188	1054.542846679688	-147.8651580810547	1353.166625976562	1032.539916992188	-185.0758361816406	1418.919311523438	842.7796630859375	-46.2986946105957	1465.516479492188	829.8744506835938	-115.5426330566406	1444.792846679688	951.0105590820312	-137.9259643554688	1466.3662109375	745.2876586914062	-99.51643371582031	1026.345458984375	1366.625	-108.6005935668945	966.2378540039062	1302.74658203125	-121.857177734375	912.818115234375	1043.76416015625	-94.82724761962891	1002.411499023438	1025.688110351562	-120.8690872192383	980.6826782226562	902.5751953125	102.1728820800781	910.4029541015625	881.3304443359375	87.693603515625	903.0740356445312	993.0654907226562	-45.67104721069336	973.5543212890625	744.536376953125	178.9621124267578	911.713134765625	802.9266357421875	129.3580932617188	1110.26708984375	1578.96240234375	-117.3427810668945	1252.2890625	1568.988525390625	23.08352279663086	1130.86376953125	1581.067138671875	14.98186874389648	1271.344116210938	1561.695922851562	-124.3499450683594	1354.160034179688	949.2814331054688	-95.22414398193359	993.3810424804688	934.1920166015625	-68.65718078613281	1060.045776367188	949.8827514648438	58.49795532226562	1321.268676757812	954.9085693359375	20.69206047058105	1352.69921875	473.2931213378906	65.65361785888672	1361.570068359375	607.665771484375	18.33624839782715	1333.201782226562	27.14488220214844	49.12442779541016	1353.964111328125	236.8891754150391	64.15768432617188	1253.26025390625	35.89044570922852	258.2479858398438	1228.731567382812	35.23374938964844	176.8594207763672	1335.867431640625	27.90789604187012	176.1312408447266	1279.427124023438	23.56918144226074	9.717883110046387	1062.070922851562	447.4946899414062	-23.83600044250488	1024.723876953125	703.2529296875	14.89313125610352	1041.9130859375	116.0221252441406	-305.8790588378906	1065.879150390625	331.9410095214844	-82.89640808105469	1162.927001953125	27.1661205291748	-219.5686492919922	1158.73828125	56.20668029785156	-270.4739685058594	1061.996704101562	52.91952133178711	-250.7225646972656	1071.920532226562	159.9696655273438	-378.3871459960938	1451.444580078125	675.392578125	-6.358762741088867	1452.020629882812	752.8056640625	-37.73237228393555	968.1259765625	816.8541259765625	168.6133117675781	nan	nan	nan	
